<?xml version="1.0" encoding="UTF-8"?>
<svg xmlns="http://www.w3.org/2000/svg" viewBox="0 0 30.8521 31.6688">
  <defs>
    <style>
      .cls-1 {
        fill: #a1a8ac33;
      }

      .cls-1, .cls-2, .cls-3, .cls-4 {
        stroke-width: 0px;
      }

      .cls-2 {
        fill: #edd784;
      }

      .cls-3 {
        fill: #e8c556;
      }

      .cls-4 {
        fill: #0285ce;
      }

      .cls-5 {
        fill: none;
        stroke: #2c3e50;
        stroke-linecap: round;
        stroke-linejoin: round;
        stroke-width: 2.75px;
      }
    </style>
  </defs>
  <g id="Post-It">
    <path id="Sombreado" class="cls-1" d="M1.8436,2.2257c.3033,4.4244.8556,14.0429,3.0387,17.6989,3.9254,6.5737,18.0632,5.1868,24.6299,4.483-.0019.03.2965,2.3929.1198,2.9343-.6208.0844-1.1416-.0703-1.764,0-.1754.0198-1.5876-.0185-1.764,0-.1252.0131-.7633-.0117-.882,0-8.5462.842-14.4845-.0285-22.932-.882.0515-2.9253-.2368-8.2038-.3398-11.122-.0615-1.7445-.1038-3.4899-.1599-5.2345-.0828-2.5748-.1097-5.1468-.2132-7.7222.3206.214.017-.135.2666-.1555Z"/>
    <path id="Base" class="cls-2" d="M29.4056,21.3268c.0486,1.5363.2746,4.3214.2132,5.6491-.0019.0412-.1014-.0032-.1066.0777-6.5666.7038-20.7044,2.0906-24.6299-4.483-2.1832-3.656-2.7354-13.2745-3.0387-17.6989-.0651-.9498-.1279-1.9071-.2666-2.8505,2.945-.2408,5.9434-.3342,8.823-.6219,1.6814-.0323,3.3896-.1272,5.0646-.311,1.4622.0611,2.911-.2458,4.3715-.2073l.1599-.1037c2.9962-.1238,5.9823-.4151,8.9563-.7774,0,0,.3544,15.0358.4531,21.3268Z"/>
    <path class="cls-4" d="M19.1138,2.7317c-1.7688.7508-2.9317,2.4012-2.9914,4.2874l-.002.1782-.2379-.0225c-2.3414-.2633-4.4029-1.48-5.8184-3.4564-.3146-.4396-.926-.541-1.3657-.2264-.1166.0834-.2135.1915-.2837.3165l-.0949.1821-.048.0969c-.7038,1.4536-1.1648,3.2205-.9955,5.093l.0294.2672c.277,2.2152,1.4683,4.1259,3.6991,5.559l.1693.1047-.0793.0421c-1.2872.649-2.4648.9319-3.7461.881-1.0337-.0392-1.4154,1.343-.5071,1.8383,3.522,1.9196,7.3033,2.5118,10.5639,1.5662,3.9742-1.1551,7.0008-4.1337,8.1588-8.2548l.1243-.4845c.233-.972.3641-1.9636.3925-2.9601l.0029-.325.3847-.7625.4307-.8438.2095-.4248.1155-.2418c.2594-.5531.4464-1.0112.5619-1.3998l.0137-.0548.0078-.0176c.2153-.5805-.1625-1.3293-.9211-1.3293l-.1194.0069c-.0773.0095-.1532.0282-.2261.0558l-.0842.0372c-.2793.1357-.5671.2534-.8614.3524l-.3485.1126-.2653.0783-.7557.2095c-1.3078-1.0944-3.0775-1.2275-4.9061-.5423l-.2065.0822v-.001Z"/>
    <path id="Doblez" class="cls-3" d="M2.921,15.8143s1.3847,4.4717,4.7967,4.4717c0,0,1.6323,5.3437,2.5103,6.174,0,0-3.4593-.698-5.292-3.528-1.0583-1.6343-1.8974-4.4183-2.015-7.1177Z"/>
  </g>
  <g id="Capa_3" data-name="Capa 3">
    <path id="Sombreado-2" data-name="Sombreado" class="cls-1" d="M3.7686,2.1087c-.4696,4.4099-1.5959,13.9782-.0808,17.9577,2.7243,7.1554,16.8881,8.2447,23.4772,8.6919-.0071.0292-.1235,2.408-.3916,2.9105-.626-.0247-1.112-.2675-1.7372-.3063-.1762-.0109-1.5602-.2939-1.7372-.3063-.1256-.0088-.7497-.1441-.8686-.1532-8.5626-.6549-14.2595-2.5433-22.4305-4.8507.5587-2.8719,1.1914-8.1203,1.5967-11.0121.2423-1.7287.5038-3.4549.7515-5.1828.3656-2.5501.7856-5.0876,1.1309-7.6419.2786.2664.0402-.13.2895-.1068Z"/>
    <path id="Base-2" data-name="Base" class="cls-2" d="M27.595,25.7056c-.219,1.5214-.48,4.3035-.771,5.6004-.009.0403-.0993-.0207-.1185.058-6.5891-.4472-20.7529-1.5364-23.4772-8.6919-1.5151-3.9795-.3888-13.5479.0808-17.9577.1008-.9467.2052-1.9003.2325-2.8535,2.9421.2743,5.9111.703,8.797.9196,1.6614.2601,3.3602.4633,5.0416.5732,1.4294.3141,2.9094.2635,4.3411.555l.1755-.0743c2.9721.3984,5.9635.63,8.9552.7897,0,0-2.2619,14.8689-3.2571,21.0815Z"/>
    <path class="cls-5" d="M7.218,7.6178l13.2806,18.1104h4.8298L12.0479,7.6178h-4.8298Z"/>
    <path class="cls-5" d="M7.7986,25.1476l7.0801-7.0801M17.6632,15.2831l7.6652-7.6652"/>
    <path id="Doblez-2" data-name="Doblez" class="cls-3" d="M2.47,15.6778s.5871,4.6442,3.9473,5.2367c0,0,.6796,5.546,1.4,6.5161,0,0-3.2856-1.2881-4.599-4.3933-.7584-1.7932-1.1013-4.6806-.7484-7.3595Z"/>
  </g>
</svg>