<?xml version="1.0" encoding="UTF-8"?>
<svg id="Post-It" xmlns="http://www.w3.org/2000/svg" viewBox="0 0 32 32">
  <path id="Sombreado" d="M.3034,2.5727c.3453,5.114.974,16.2319,3.4592,20.4577,4.4685,7.5983,20.5622,5.9953,28.0373,5.1818-.0022.0347.3376,2.7659.1363,3.3917-.7067.0975-1.2995-.0813-2.008,0-.1997.0229-1.8072-.0214-2.008,0-.1425.0152-.8689-.0135-1.004,0-9.7285.9732-16.4884-.0329-26.1046-1.0195.0587-3.3813-.2696-9.4826-.3868-12.8557-.07-2.0164-.1182-4.0339-.1821-6.0505-.0943-2.9761-.1249-5.949-.2427-8.9259.365.2474.0193-.156.3034-.1797Z" style="fill: #a1a8ac33; stroke-width: 0px;"/>
  <path id="Base" d="M31.6786,24.6511c.0553,1.7758.3126,4.995.2427,6.5297-.0022.0476-.1155-.0037-.1214.0899-7.4751.8135-23.5688,2.4165-28.0373-5.1818C1.2774,21.863.6487,10.7452.3034,5.6311c-.0741-1.0979-.1456-2.2044-.3034-3.2948,3.3524-.2783,6.7656-.3862,10.0437-.7189,1.914-.0374,3.8586-.147,5.7653-.3594,1.6645.0706,3.3137-.2841,4.9763-.2396l.1821-.1198c3.4107-.1431,6.8099-.4798,10.1954-.8986,0,0,.4034,17.3795.5158,24.6511Z" style="fill: #edd784; stroke-width: 0px;"/>
  <path d="M14.0092,25.197c-5.7399,1.8688-5.7399-3.3372-8.0092-4.0046M22.0183,27.8668v-4.672c0-1.3349.1335-1.8688-.6674-2.6697,3.7376-.4005,7.3417-1.8688,7.3417-8.0092-.0016-1.5952-.624-3.1272-1.7353-4.2716.5212-1.3856.4732-2.9212-.1335-4.2716,0,0-1.4683-.4005-4.672,1.7353-2.7135-.7067-5.5627-.7067-8.2761,0-3.2037-2.1358-4.672-1.7353-4.672-1.7353-.6067,1.3504-.6547,2.8859-.1335,4.2716-1.1113,1.1444-1.7337,2.6763-1.7353,4.2716,0,6.1404,3.6041,7.6087,7.3417,8.0092-.8009.8009-.8009,1.6018-.6674,2.6697v4.672" style="fill: none; stroke: #2c3e50; stroke-linecap: round; stroke-linejoin: round; stroke-width: 2.75px;"/>
  <path id="Doblez" d="M1.5299,18.2793s1.5763,5.1688,5.4603,5.1688c0,0,1.8582,6.1767,2.8576,7.1364,0,0-3.9379-.8068-6.0241-4.0779-1.2047-1.889-2.1599-5.1069-2.2938-8.2272Z" style="fill: #e8c556; stroke-width: 0px;"/>
</svg>