<?xml version="1.0" encoding="UTF-8"?>
<svg id="Post-It" xmlns="http://www.w3.org/2000/svg" viewBox="0 0 32 32" width="32" height="32">
  <path id="Sombreado" d="M 0.3 2.5 c 0.3 5 1 15.9 3.4 20.1 c 4.5 7.5 20.5 5.9 27.9 5.1 c 0 0 0.3 2.7 0.1 3.3 c -0.7 0.1 -1.3 -0.1 -2 0 c -0.2 0 -1.8 0 -2 0 c -0.1 0 -0.9 0 -1 0 c -9.7 1 -16.4 0 -26 -1 c 0.1 -3.3 -0.3 -9.3 -0.4 -12.6 c -0.1 -2 -0.1 -4 -0.2 -5.9 c -0.1 -2.9 -0.1 -5.8 -0.2 -8.8 c 0.4 0.2 0 -0.2 0.3 -0.2 Z" fill="#a1a8ac30" stroke-width="0"/>
  <path id="Base" d="M 31.6 24.2 c 0.1 1.7 0.3 4.9 0.2 6.4 c 0 0 -0.1 0 -0.1 0.1 c -7.4 0.8 -23.5 2.4 -27.9 -5.1 C 1.3 21.4 0.6 10.5 0.3 5.5 c -0.1 -1.1 -0.1 -2.2 -0.3 -3.2 c 3.3 -0.3 6.7 -0.4 10 -0.7 c 1.9 0 3.8 -0.1 5.7 -0.4 c 1.7 0.1 3.3 -0.3 5 -0.2 l 0.2 -0.1 c 3.4 -0.1 6.8 -0.5 10.2 -0.9 c 0 0 0.4 17 0.5 24.2 Z" fill="#edd784" stroke-width="0"/>
  <path id="Doblez" d="M 1.5 17.9 s 1.6 2.9 5.4 2.9 c 0 0 1.9 8.2 2.8 9.1 c 0 0 -3.9 -0.8 -6 -4 c -1.2 -1.9 -2.2 -5 -2.3 -8.1 Z" fill="#e8c556" stroke-width="0"/>
</svg>